<svg width="30" height="30" viewBox="0 0 30 30" fill="none" xmlns="http://www.w3.org/2000/svg">
<path d="M15.6244 27.5004H5.09941C3.64941 27.5004 2.46191 26.3379 2.46191 24.9129V6.36294C2.46191 3.08794 4.89941 1.60044 7.88691 3.06294L13.4369 5.78794C14.6369 6.37544 15.6244 7.93794 15.6244 9.26294V27.5004Z" stroke="#002E25" stroke-width="1.5" stroke-linecap="round" stroke-linejoin="round"/>
<path d="M27.4623 18.8254V23.5504C27.4623 26.2504 26.2123 27.5004 23.5123 27.5004H15.6248V13.0254L16.2123 13.1504L21.8373 14.4129L24.3748 14.9754C26.0248 15.3379 27.3748 16.1879 27.4498 18.5879C27.4623 18.6629 27.4623 18.7379 27.4623 18.8254Z" stroke="#002E25" stroke-width="1.5" stroke-linecap="round" stroke-linejoin="round"/>
<path opacity="0.4" d="M6.87451 11.251H11.212" stroke="#002E25" stroke-width="1.5" stroke-linecap="round" stroke-linejoin="round"/>
<path opacity="0.4" d="M6.87451 16.25H11.212" stroke="#002E25" stroke-width="1.5" stroke-linecap="round" stroke-linejoin="round"/>
<path d="M21.8372 14.4129V18.4379C21.8372 19.9879 20.5747 21.2504 19.0247 21.2504C17.4747 21.2504 16.2122 19.9879 16.2122 18.4379V13.1504L21.8372 14.4129Z" stroke="#002E25" stroke-width="1.5" stroke-linecap="round" stroke-linejoin="round"/>
<path d="M27.4497 18.5876C27.3747 20.0626 26.1497 21.2501 24.6497 21.2501C23.0997 21.2501 21.8372 19.9876 21.8372 18.4376V14.4126L24.3747 14.9751C26.0247 15.3376 27.3747 16.1876 27.4497 18.5876Z" stroke="#002E25" stroke-width="1.5" stroke-linecap="round" stroke-linejoin="round"/>
</svg>
