<svg width="30" height="30" viewBox="0 0 30 30" fill="none" xmlns="http://www.w3.org/2000/svg">
<path d="M9.34985 22.9376L13.2249 25.9376C13.7249 26.4376 14.8499 26.6876 15.5999 26.6876H20.3499C21.8499 26.6876 23.4749 25.5626 23.8499 24.0626L26.8499 14.9376C27.4749 13.1876 26.3499 11.6876 24.4749 11.6876H19.4749C18.7249 11.6876 18.0999 11.0626 18.2249 10.1876L18.8499 6.18758C19.0999 5.06258 18.3499 3.81258 17.2249 3.43758C16.2249 3.06258 14.9749 3.56258 14.4749 4.31258L9.34985 11.9376" stroke="white" stroke-width="1.5" stroke-miterlimit="10"/>
<path d="M2.97485 22.9375V10.6875C2.97485 8.9375 3.72485 8.3125 5.47485 8.3125H6.72485C8.47485 8.3125 9.22485 8.9375 9.22485 10.6875V22.9375C9.22485 24.6875 8.47485 25.3125 6.72485 25.3125H5.47485C3.72485 25.3125 2.97485 24.6875 2.97485 22.9375Z" stroke="white" stroke-width="1.5" stroke-linecap="round" stroke-linejoin="round"/>
</svg>
