<svg width="39" height="35" viewBox="0 0 39 35" fill="none" xmlns="http://www.w3.org/2000/svg">
<g clip-path="url(#clip0_1_722)">
<path d="M9.12524 35.0002L11.0893 23.3516H13.4305L15.1759 30.2079L15.2497 30.2472L16.3986 23.3501H18.3173L16.3766 35.0002H14.3458L12.349 27.4752L11.0666 35.0002H9.12524Z" fill="white"/>
<path d="M0 35.0002L4.70786 23.3501H7.45234L8.14397 35.0002H6.13585L6.00306 32.5403L3.11088 32.5284L3.04484 32.5529L2.03013 34.9995H0V35.0002ZM5.89016 30.5734C5.83122 29.012 5.72968 27.4559 5.66719 25.9019L5.6118 25.8434L3.77055 30.5734H5.89016Z" fill="white"/>
<path d="M18.0945 35.0002L20.0579 23.3501H25.8813L25.5688 25.3074L21.8437 25.3088L21.3964 28.0104H24.2303L23.8973 29.9343L21.0619 29.9447L20.5485 33.043H24.4086L24.0741 35.0002H18.0945Z" fill="white"/>
<path d="M25.6802 35.0002L27.6215 23.3501H33.467L33.1339 25.2977L29.4088 25.3103L28.9601 28.0104H31.7933L31.456 29.941L28.6277 29.9469L28.1122 33.043H31.9722L31.6598 35.0002H25.6802Z" fill="white"/>
<path d="M33.1326 35.0002L35.118 23.3501H37.2148L35.6086 33.043H39L38.6876 35.0002H33.1326Z" fill="white"/>
<path d="M16.1976 15.6612L15.5145 19.5305H8.0416C2.45181 19.254 -0.431841 13.8048 1.13177 8.42012C2.50223 3.70121 6.5767 0.161839 11.3662 0.00244141H18.8079L18.1809 3.91547L12.2716 3.91917L11.6013 7.8322H17.5134L16.8438 11.7467L10.9345 11.7497L10.3181 15.6612H16.1969H16.1976Z" fill="white"/>
<path d="M21.7982 7.80914L22.4231 3.94134L28.3325 3.93763L29.0049 0.00384679C29.972 0.00755371 30.9307 -0.0391535 31.8878 0.126917C35.2629 0.711869 37.7752 3.42533 38.1721 6.98472C38.8517 13.0767 33.7547 18.9403 28.0569 19.5289C27.2808 19.609 26.5004 19.5697 25.7257 19.5289L26.3506 15.6382H20.4604L21.1279 11.7807L27.0209 11.7607L27.6778 7.80988H21.799L21.7982 7.80914Z" fill="white"/>
</g>
<defs>
<clipPath id="clip0_1_722">
<rect width="39" height="35" fill="white"/>
</clipPath>
</defs>
</svg>
