<svg width="155" height="73" viewBox="0 0 155 73" fill="none" xmlns="http://www.w3.org/2000/svg">
<g clip-path="url(#clip0_1_314)">
<path d="M33.6212 0V27.4781L24.9846 1.87433C25.0041 1.56147 25.2744 1.52254 25.5085 1.41826C27.2848 0.624312 30.857 0.2767 32.8424 0.127921L33.0639 0L33.6212 0Z" fill="white"/>
<path d="M66.8885 54.4028C61.487 65.3443 49.738 72.5593 37.518 72.9987V58.5644L66.8885 54.4028Z" fill="white"/>
<path d="M33.8985 58.5657V72.8596C21.7078 72.384 10.3684 64.8019 4.66451 54.1956L33.8985 58.5657Z" fill="white"/>
<path d="M38.0753 50.6542L68.4893 22.8994C69.7279 25.9584 70.7213 29.2413 71.0626 32.5464C71.1044 32.944 71.2674 34.1287 71.0654 34.3512L38.0739 50.6542H38.0753Z" fill="white"/>
<path d="M21.5587 39.6432C25.4444 43.2361 29.3956 46.7692 33.2018 50.4484L32.997 50.5151L0.236849 33.7018C0.13793 31.0808 0.805283 28.3263 1.53672 25.8138C1.71924 25.1895 2.38519 22.8771 2.64851 22.4809C2.81013 22.2389 2.80595 22.4127 2.92576 22.4836C3.09713 22.5851 3.39249 22.8271 3.55689 22.9661C9.6383 28.1358 15.6737 34.201 21.5601 39.6432H21.5587Z" fill="white"/>
<path d="M47.4587 37.2516C44.2724 40.152 41.1293 43.1192 37.865 45.9363L37.7981 45.7305L60.4073 11.093L60.8057 10.979C61.3379 11.1194 64.1592 14.939 64.6357 15.6384C64.9924 16.1612 66.6823 18.7043 66.7186 19.1048C66.7548 19.5052 64.9993 21.1209 64.5953 21.5144C59.0767 26.8871 53.1625 32.0596 47.4587 37.2516Z" fill="white"/>
<path d="M10.7766 10.5646L33.2032 45.5205L4.59623 19.1478C4.43323 18.8057 4.63664 18.4122 4.78292 18.0869C5.63697 16.1889 8.00962 13.0451 9.46833 11.517C9.71075 11.2626 10.4519 10.3754 10.7766 10.5646Z" fill="white"/>
<path d="M57.8145 8.07302C57.9176 8.24682 57.8242 8.43036 57.7629 8.59583C57.43 9.49128 55.74 11.7786 55.1144 12.7561C50.195 20.4411 45.1668 28.0941 40.1359 35.7096C39.3097 36.961 38.4961 38.2958 37.5194 39.4138L49.1514 3.20088C49.2392 3.07296 49.3047 2.92557 49.4956 2.97146C50.1573 3.12858 52.6108 4.54266 53.3409 4.97231C54.9068 5.89557 56.3474 7.0121 57.8145 8.07302Z" fill="white"/>
<path d="M33.2018 54.5431L2.72514 49.8865C1.68441 48.6796 -0.422143 38.2693 0.0752371 37.7493L33.2018 54.5445V54.5431Z" fill="white"/>
<path d="M71.2019 38.3042C71.4374 38.4794 70.8355 42.901 70.7199 43.581C70.3242 45.8835 69.6555 48.1778 68.8084 50.3497L38.0753 54.8172L71.2019 38.3042Z" fill="white"/>
<path d="M33.4805 38.9978L13.3234 8.08537L13.3164 7.7892C15.873 5.93434 18.5396 4.19906 21.4417 2.91846L33.4791 38.9965L33.4805 38.9978Z" fill="white"/>
<path d="M45.8704 1.52823L37.2408 27.8953L37.3773 0.137776C40.2724 0.0487877 43.07 0.940066 45.8704 1.52684V1.52823Z" fill="white"/>
<path d="M95.4245 39.2747L100.436 47.1849V39.2747H102.941V51.4188L102.732 51.626H100.506L94.7279 42.8829V51.626H92.3622V39.2747H95.4245Z" fill="white"/>
<path d="M135.095 51.6259L134.954 50.2383C132.544 52.9858 127.771 51.9652 126.024 48.9424C122.889 43.5168 127.927 37.0679 133.936 39.3886C135.003 39.8001 136.704 41.1975 136.984 42.3252C137.199 43.1859 135.439 43.1636 134.882 43.5571C132.413 38.7629 126.286 41.8191 127.757 46.9373C128.685 50.1687 133.515 50.7096 134.762 47.4727L134.609 47.1848H130.92V45.1033H137.044V51.6259H135.095Z" fill="white"/>
<path d="M91.9442 34.1398L91.8035 32.8912C87.7492 36.5411 82.0482 33.2972 81.9743 28.0789C81.8754 21.046 91.4677 18.9102 94.0327 25.3939L91.7506 26.1003C89.573 21.7676 83.8036 23.8825 84.4626 28.7588C84.9879 32.6451 90.3782 33.6921 91.6642 29.835H87.7673V27.7535H93.8919V34.137H91.9428L91.9442 34.1398Z" fill="white"/>
<path d="M125.283 21.7884C129.125 22.3029 129.773 28.0413 125.907 29.0772L128.554 34.1412H125.77L123.476 29.5597L122.152 29.4234V34.1426H119.647V21.9998L119.856 21.7912C121.55 21.9539 123.643 21.5715 125.285 21.7912L125.283 21.7884ZM122.151 27.3405H124.586C124.622 27.3405 125.17 27.0972 125.26 27.0416C126.733 26.1572 125.928 23.8699 124.447 23.8699H122.149V27.3391L122.151 27.3405Z" fill="white"/>
<path d="M123.82 51.6261H121.175L118.817 46.9695C118.499 46.6288 117.981 46.7998 117.556 46.7693V51.4189L117.347 51.6275H115.258L115.049 51.4189V39.2761H120.965C121.641 39.2761 123.108 40.49 123.43 41.1212C124.514 43.2486 123.572 45.7612 121.318 46.5704L123.82 51.6275V51.6261ZM117.557 44.6878H120.271C120.75 44.6878 121.465 43.4739 121.446 42.965C121.425 42.4158 120.706 41.3576 120.132 41.3576H117.557V44.6878Z" fill="white"/>
<path d="M106.282 34.1398L110.945 21.9261L113.596 21.7773L118.532 34.1384H115.958L114.898 31.3798L109.747 31.4451L108.719 34.1384H106.283L106.282 34.1398ZM114.077 29.1439L112.337 24.5624L110.597 29.1439H114.077Z" fill="white"/>
<path d="M141.359 34.1398H138.784L137.756 31.4465L132.604 31.3784L131.547 34.1398H129.111L133.838 21.8524C134.332 21.801 136.469 21.6466 136.7 21.9247L141.36 34.1398H141.359ZM136.905 29.1439L135.165 24.5624L133.564 29.1439H136.905Z" fill="white"/>
<path d="M155 51.626H152.565L151.385 48.7783L146.387 48.7283L145.397 51.626H142.892L147.686 39.2649L150.479 39.4109L155 51.626ZM150.546 46.4911L148.878 41.9137L147.206 46.4911H150.546Z" fill="white"/>
<path d="M98.3475 21.7883V30.1853C98.3475 31.3852 99.8507 32.1096 100.928 32.0665C101.867 32.029 103.08 31.1725 103.08 30.1853V21.7883H105.446V30.8791C105.446 31.0974 104.89 32.2821 104.727 32.5212C102.994 35.0782 98.4143 35.0949 96.6993 32.5212C96.5196 32.2515 95.9804 30.9903 95.9804 30.74V21.7883H98.3461H98.3475Z" fill="white"/>
<path d="M113.102 39.2747V41.4952H107.674V44.2705H112.546V46.4911H107.674V49.2678H113.102V51.626H105.307V39.2747H113.102Z" fill="white"/>
<path d="M90.2737 39.2747V41.4952H84.9851V44.2705H89.8558V46.2839L89.6482 46.4911H84.9851V49.2678H90.2737V51.626H82.618V39.2747H90.2737Z" fill="white"/>
<path d="M141.638 39.2747V51.626H139.34L139.133 51.4188V39.2747H141.638Z" fill="white"/>
<path d="M138.297 17.4863C138.394 17.5725 137.816 18.4749 137.714 18.6404C137.497 18.9936 136.523 20.5175 136.286 20.6176C136.076 20.7052 134.875 20.7177 134.605 20.6788C134.424 20.6524 134.354 20.7539 134.397 20.4716C134.517 19.6958 135.257 18.2636 135.581 17.4877H138.295L138.297 17.4863Z" fill="white"/>
</g>
<defs>
<clipPath id="clip0_1_314">
<rect width="155" height="73" fill="white"/>
</clipPath>
</defs>
</svg>
