<svg width="48" height="51" viewBox="0 0 48 51" fill="none" xmlns="http://www.w3.org/2000/svg">
<g clip-path="url(#clip0_1_1172)">
<path d="M25.5215 50.2993L20.1862 46.3329C19.7527 45.9968 19.4999 45.5106 19.8161 44.9924L23.4181 40.4884L21.2247 35.9903C20.3358 35.691 18.931 36.1288 18.8098 34.7883C18.6527 33.0477 18.9348 31.0611 18.8155 29.2934L16.5029 27.8686L15.3924 24.7033C14.3975 24.2393 12.5024 24.0514 11.6381 23.4693C11.1373 23.1322 10.4396 21.5108 10.1206 20.9122C9.97483 20.8027 7.31193 22.274 6.76667 22.2692C6.65875 22.2692 6.5584 22.2421 6.46279 22.1917L1.05653 18.3435C0.872884 18.1846 0.715742 17.9066 0.679769 17.6664C0.568066 16.9254 0.583212 14.3829 0.67125 13.61C0.724261 13.1431 0.972281 12.9377 1.38691 12.7954C2.52193 12.4031 4.02141 12.312 5.20376 12.0127C5.33251 10.3235 5.04662 8.41248 5.20944 6.7494C5.26719 6.16437 5.46504 5.61421 6.10402 5.53769C6.76572 5.45826 8.46399 5.46311 9.12948 5.53963C9.59996 5.59387 9.91519 5.86992 10.3431 6.00746L11.8672 4.76475C12.1265 3.54916 11.3796 2.84015 12.7172 2.25125C13.4925 1.9103 16.2369 0.940741 16.9942 0.825479C17.4419 0.757677 17.654 0.801264 17.9673 1.13737C18.0856 1.26425 18.9083 2.68905 18.9083 2.78494V5.58806C18.9083 5.65101 19.0976 5.78081 19.1951 5.69557L23.0404 4.11289L25.4552 4.09158C25.8566 3.67218 26.6584 2.1573 27.181 2.06625C27.6088 1.99167 27.9866 2.04106 28.2488 2.413C28.4305 2.67065 29.3876 4.43059 29.4463 4.66789C29.6091 5.32266 29.3791 6.04329 29.5371 6.70194C30.2736 7.26566 32.5181 7.88072 31.686 9.18735C31.3026 9.78885 30.763 9.6116 30.2462 9.36073C29.859 9.17282 28.0131 8.1064 27.8427 7.8565C27.2898 7.04773 27.8843 5.65198 27.4119 4.76766C27.3135 4.69211 26.6669 5.68007 26.5552 5.77499C25.9626 6.28544 24.2435 5.88929 23.42 6.04717C22.2064 6.27963 20.457 7.47197 19.1762 7.79451C18.3848 7.99404 17.7969 7.42838 17.3482 6.79977C17.1115 6.46851 17.051 6.19536 17.0169 5.78565C16.9771 5.31007 17.1958 3.04162 16.7736 2.94283L13.8201 3.90948C13.7832 5.0224 14.0255 5.41855 13.1915 6.21377C12.864 6.52565 10.9196 8.07347 10.6185 8.13158C9.97956 8.25459 9.20426 7.47294 8.94205 7.47294H7.09988V13.1286C7.09988 13.1857 6.88689 13.4579 6.814 13.5131C6.25927 13.9364 2.69517 14.3558 2.57684 14.5427L2.65257 17.0979L6.885 20.1218C7.7578 20.0201 9.89342 18.5633 10.6185 18.7038C10.8069 18.7406 11.0786 18.9266 11.2055 19.0767C11.6135 19.5571 12.4673 21.626 12.8252 21.8662C13.6658 22.3176 16.1886 22.6489 16.7859 23.2271C17.2375 23.6649 17.6757 25.9101 17.9881 26.5881C18.4312 26.8594 20.704 27.9335 20.704 28.4014V33.9601C21.3023 34.0095 22.1515 33.9001 22.5405 34.4493C23.3026 36.3022 24.6298 38.1599 25.3208 40.0148C25.5187 40.5466 25.565 40.6909 25.2792 41.2042C24.5711 42.4789 22.9542 43.8572 22.1202 45.1251C22.0682 45.2045 21.9877 45.221 22.0275 45.3663L25.8036 47.935L29.7539 43.6557C29.9177 42.1593 29.6044 40.4013 29.7719 38.9377C29.824 38.4834 30.0417 38.3343 30.3995 38.1299C32.3657 37.0083 34.861 36.3099 36.8537 35.1641L40.9678 30.3831L41.0597 23.7104L45.4379 18.3299V15.6149L41.5595 12.4777C40.5844 12.1851 37.8931 12.9658 38.0853 11.1943C38.1203 10.8746 38.2159 10.7051 38.4933 10.5482C39.014 10.2538 39.1844 10.4727 39.6425 10.4756C40.5257 10.4804 41.4733 10.3584 42.3121 10.6441L47.0557 14.4914C47.156 14.6018 47.2658 14.7732 47.3027 14.9156C47.4419 15.46 47.4116 17.9909 47.352 18.6447C47.3397 18.7842 47.3501 18.9237 47.2762 19.0505L42.9264 24.3633C42.8119 26.5988 43.0618 28.8876 42.7977 31.095L38.0825 36.7109L31.6794 39.6806C31.5592 39.8773 31.7267 43.4281 31.669 44.0684C31.6302 44.4945 31.4882 44.6611 31.2402 44.9827C30.2708 46.2409 28.5564 47.8817 27.4148 49.0925C27.0058 49.5264 26.5969 49.9952 26.0895 50.2984H25.5224L25.5215 50.2993Z" fill="white"/>
<path d="M34.2467 10.7277C33.3654 9.84623 34.8431 8.46211 35.6335 9.35709C36.4827 10.3179 35.111 11.5926 34.2467 10.7277Z" fill="white"/>
</g>
<defs>
<clipPath id="clip0_1_1172">
<rect width="46.8" height="49.5" fill="white" transform="translate(0.600098 0.799805)"/>
</clipPath>
</defs>
</svg>
