<svg width="54" height="54" viewBox="0 0 54 54" fill="none" xmlns="http://www.w3.org/2000/svg">
<path d="M27.1486 50.6628C14.1774 50.6628 3.63428 40.1197 3.63428 27.1486C3.63428 14.1774 14.1774 3.63428 27.1486 3.63428C40.1197 3.63428 50.6628 14.1774 50.6628 27.1486C50.6628 40.1197 40.1197 50.6628 27.1486 50.6628ZM27.1486 6.91534C15.9929 6.91534 6.91534 15.9929 6.91534 27.1486C6.91534 38.3042 15.9929 47.3818 27.1486 47.3818C38.3042 47.3818 47.3818 38.3042 47.3818 27.1486C47.3818 15.9929 38.3042 6.91534 27.1486 6.91534Z" fill="#292D32"/>
<path d="M24.0421 34.9793C23.6047 34.9793 23.1891 34.8043 22.8828 34.4981L16.6926 28.3078C16.0582 27.6734 16.0582 26.6235 16.6926 25.9892C17.3269 25.3548 18.3768 25.3548 19.0112 25.9892L24.0421 31.0201L35.2852 19.777C35.9196 19.1427 36.9695 19.1427 37.6039 19.777C38.2382 20.4114 38.2382 21.4613 37.6039 22.0956L25.2014 34.4981C24.8952 34.8043 24.4796 34.9793 24.0421 34.9793Z" fill="#292D32"/>
</svg>
