<svg width="15" height="16" viewBox="0 0 15 16" fill="none" xmlns="http://www.w3.org/2000/svg">
<path d="M7.40653 14.4923C3.74645 14.4923 0.771484 11.5173 0.771484 7.85721C0.771484 4.19714 3.74645 1.22217 7.40653 1.22217C11.0666 1.22217 14.0416 4.19714 14.0416 7.85721C14.0416 11.5173 11.0666 14.4923 7.40653 14.4923ZM7.40653 2.14799C4.25874 2.14799 1.6973 4.70942 1.6973 7.85721C1.6973 11.005 4.25874 13.5664 7.40653 13.5664C10.5543 13.5664 13.1158 11.005 13.1158 7.85721C13.1158 4.70942 10.5543 2.14799 7.40653 2.14799Z" fill="#292D32"/>
<path d="M7.40627 8.93742C7.15321 8.93742 6.94336 8.72757 6.94336 8.47451V5.38845C6.94336 5.13539 7.15321 4.92554 7.40627 4.92554C7.65933 4.92554 7.86918 5.13539 7.86918 5.38845V8.47451C7.86918 8.72757 7.65933 8.93742 7.40627 8.93742Z" fill="#292D32"/>
<path d="M7.40628 10.9433C7.32604 10.9433 7.2458 10.9247 7.17173 10.8939C7.09767 10.863 7.02978 10.8198 6.96805 10.7643C6.91251 10.7025 6.8693 10.6408 6.83844 10.5606C6.80758 10.4865 6.78906 10.4063 6.78906 10.326C6.78906 10.2458 6.80758 10.1656 6.83844 10.0915C6.8693 10.0174 6.91251 9.94954 6.96805 9.88782C7.02978 9.83227 7.09767 9.78907 7.17173 9.75821C7.31987 9.69648 7.49269 9.69648 7.64082 9.75821C7.71488 9.78907 7.78278 9.83227 7.8445 9.88782C7.90005 9.94954 7.94325 10.0174 7.97411 10.0915C8.00497 10.1656 8.02349 10.2458 8.02349 10.326C8.02349 10.4063 8.00497 10.4865 7.97411 10.5606C7.94325 10.6408 7.90005 10.7025 7.8445 10.7643C7.78278 10.8198 7.71488 10.863 7.64082 10.8939C7.56675 10.9247 7.48651 10.9433 7.40628 10.9433Z" fill="#292D32"/>
</svg>
