<svg width="16" height="17" viewBox="0 0 16 17" fill="none" xmlns="http://www.w3.org/2000/svg">
<path d="M15.8444 5.29643C15.8359 4.64061 15.7133 3.99129 15.4822 3.37749C15.2814 2.85983 14.9749 2.38971 14.5823 1.99709C14.1897 1.60448 13.7196 1.29799 13.2019 1.09718C12.5961 0.869643 11.956 0.746569 11.309 0.733203C10.476 0.695849 10.2127 0.685425 8.09488 0.685425C5.97701 0.685425 5.70946 0.685425 4.88073 0.733203C4.23431 0.746765 3.59486 0.869836 2.98959 1.09718C2.47252 1.29812 2.00304 1.60471 1.61115 1.99734C1.21926 2.38998 0.913579 2.86004 0.713624 3.37749C0.486021 3.98263 0.363509 4.62222 0.351381 5.26863C0.314028 6.1017 0.302734 6.36665 0.302734 8.48278C0.302734 10.5989 0.302735 10.8673 0.351381 11.6969C0.363956 12.3439 0.486449 12.9839 0.713624 13.5898C0.914635 14.1071 1.22121 14.5769 1.61382 14.9692C2.00642 15.3615 2.47644 15.6678 2.99393 15.8684C3.59754 16.105 4.2371 16.2369 4.88507 16.2584C5.71814 16.2958 5.98309 16.3071 8.09922 16.3071C10.2153 16.3071 10.4846 16.3071 11.3134 16.2584C11.9603 16.2459 12.6004 16.1234 13.2062 15.8962C13.7239 15.6954 14.194 15.3889 14.5866 14.9963C14.9793 14.6036 15.2857 14.1335 15.4866 13.6159C15.7141 13.0101 15.8366 12.37 15.8488 11.723C15.8861 10.8899 15.8974 10.6267 15.8974 8.50884C15.8974 6.39098 15.8974 6.12602 15.8471 5.29469L15.8444 5.29643ZM8.09314 12.4805C7.30161 12.4805 6.52785 12.2458 5.86972 11.806C5.21158 11.3663 4.69863 10.7412 4.39573 10.01C4.09282 9.27868 4.01357 8.474 4.16799 7.69767C4.32241 6.92135 4.70356 6.20825 5.26326 5.64856C5.82296 5.08886 6.53606 4.7077 7.31238 4.55328C8.0887 4.39886 8.89338 4.47812 9.62466 4.78102C10.3559 5.08393 10.981 5.59688 11.4207 6.25502C11.8605 6.91315 12.0952 7.6869 12.0952 8.47843C12.0953 9.0041 11.9918 9.52463 11.7907 10.0103C11.5896 10.4959 11.2947 10.9372 10.923 11.3089C10.5512 11.6805 10.1099 11.9753 9.62419 12.1763C9.13849 12.3774 8.61793 12.4807 8.09227 12.4805H8.09314ZM12.255 5.25994C12.0705 5.26011 11.89 5.20554 11.7365 5.10313C11.5829 5.00072 11.4632 4.85507 11.3925 4.68461C11.3217 4.51414 11.3031 4.32652 11.339 4.14549C11.3749 3.96445 11.4637 3.79813 11.5941 3.66757C11.7246 3.537 11.8908 3.44806 12.0718 3.41199C12.2528 3.37592 12.4405 3.39434 12.611 3.46493C12.7815 3.53552 12.9273 3.6551 13.0298 3.80855C13.1324 3.96199 13.1871 4.14241 13.1871 4.32697C13.1872 4.44945 13.1632 4.57075 13.1164 4.68394C13.0696 4.79712 13.001 4.89998 12.9144 4.98663C12.8279 5.07327 12.7251 5.14201 12.6119 5.18891C12.4988 5.2358 12.3775 5.25994 12.255 5.25994Z" fill="white"/>
</svg>
