<svg width="16" height="16" viewBox="0 0 16 16" fill="none" xmlns="http://www.w3.org/2000/svg">
<path d="M11.7035 7.22852C11.4504 7.22852 11.2405 7.01867 11.2405 6.76561V5.53118C11.2405 3.58696 10.6912 2.29081 8.00017 2.29081C5.30912 2.29081 4.7598 3.58696 4.7598 5.53118V6.76561C4.7598 7.01867 4.54995 7.22852 4.29689 7.22852C4.04384 7.22852 3.83398 7.01867 3.83398 6.76561V5.53118C3.83398 3.74126 4.26603 1.36499 8.00017 1.36499C11.7343 1.36499 12.1664 3.74126 12.1664 5.53118V6.76561C12.1664 7.01867 11.9565 7.22852 11.7035 7.22852Z" fill="#292D32"/>
<path d="M8.00008 12.4748C6.89527 12.4748 5.99414 11.5736 5.99414 10.4688C5.99414 9.36402 6.89527 8.46289 8.00008 8.46289C9.1049 8.46289 10.006 9.36402 10.006 10.4688C10.006 11.5736 9.1049 12.4748 8.00008 12.4748ZM8.00008 9.38871C7.40756 9.38871 6.91996 9.87631 6.91996 10.4688C6.91996 11.0614 7.40756 11.549 8.00008 11.549C8.59261 11.549 9.08021 11.0614 9.08021 10.4688C9.08021 9.87631 8.59261 9.38871 8.00008 9.38871Z" fill="#292D32"/>
<path d="M11.0863 14.6351H4.91421C2.1923 14.6351 1.36523 13.808 1.36523 11.0861V9.85171C1.36523 7.1298 2.1923 6.30273 4.91421 6.30273H11.0863C13.8083 6.30273 14.6353 7.1298 14.6353 9.85171V11.0861C14.6353 13.808 13.8083 14.6351 11.0863 14.6351ZM4.91421 7.22855C2.70459 7.22855 2.29105 7.64826 2.29105 9.85171V11.0861C2.29105 13.2896 2.70459 13.7093 4.91421 13.7093H11.0863C13.296 13.7093 13.7095 13.2896 13.7095 11.0861V9.85171C13.7095 7.64826 13.296 7.22855 11.0863 7.22855H4.91421Z" fill="#292D32"/>
</svg>
