<svg width="16" height="16" viewBox="0 0 16 16" fill="none" xmlns="http://www.w3.org/2000/svg">
<path d="M8.20366 13.7647C7.5309 13.7647 6.85814 13.5117 6.34585 12.9994C5.32128 11.9748 5.32128 10.3145 6.34585 9.28995L7.87654 7.76543C8.05553 7.58644 8.3518 7.58644 8.53079 7.76543C8.70978 7.94442 8.70978 8.24068 8.53079 8.41968L7.0001 9.94419C6.33968 10.6046 6.33968 11.6847 7.0001 12.3452C7.66052 13.0056 8.74064 13.0056 9.40106 12.3452L11.802 9.94419C12.5303 9.21588 12.9315 8.24686 12.9315 7.21611C12.9315 6.18536 12.5303 5.21634 11.802 4.48803C10.296 2.98202 7.85185 2.98202 6.34585 4.48803L3.72887 7.10501C3.11783 7.71605 2.77836 8.53077 2.77836 9.39487C2.77836 10.259 3.11783 11.0737 3.72887 11.6847C3.90786 11.8637 3.90786 12.16 3.72887 12.339C3.54988 12.518 3.25361 12.518 3.07462 12.339C2.29076 11.5489 1.85254 10.5059 1.85254 9.39487C1.85254 8.28389 2.28459 7.23463 3.07462 6.45076L5.69161 3.83378C7.55559 1.96979 10.5923 1.96979 12.4563 3.83378C13.3574 4.73491 13.8573 5.93848 13.8573 7.21611C13.8573 8.49374 13.3574 9.69731 12.4563 10.5984L10.0553 12.9994C9.54302 13.5117 8.87643 13.7647 8.20366 13.7647Z" fill="#292D32"/>
</svg>
