<svg width="43" height="44" viewBox="0 0 43 44" fill="none" xmlns="http://www.w3.org/2000/svg">
<path d="M21.6215 41.2326C11.1005 41.2326 2.54883 32.6809 2.54883 22.1599C2.54883 11.6388 11.1005 3.08716 21.6215 3.08716C32.1426 3.08716 40.6942 11.6388 40.6942 22.1599C40.6942 32.6809 32.1426 41.2326 21.6215 41.2326ZM21.6215 5.74846C12.5731 5.74846 5.21013 13.1114 5.21013 22.1599C5.21013 31.2083 12.5731 38.5712 21.6215 38.5712C30.67 38.5712 38.0329 31.2083 38.0329 22.1599C38.0329 13.1114 30.67 5.74846 21.6215 5.74846Z" fill="#002E25"/>
<path d="M19.1011 28.5115C18.7463 28.5115 18.4092 28.3696 18.1608 28.1212L13.1398 23.1002C12.6253 22.5857 12.6253 21.7341 13.1398 21.2196C13.6543 20.705 14.5059 20.705 15.0205 21.2196L19.1011 25.3002L28.2205 16.1808C28.7351 15.6663 29.5867 15.6663 30.1012 16.1808C30.6157 16.6953 30.6157 17.5469 30.1012 18.0615L20.0415 28.1212C19.7931 28.3696 19.456 28.5115 19.1011 28.5115Z" fill="#002E25"/>
</svg>
