<svg width="20" height="21" viewBox="0 0 20 21" fill="none" xmlns="http://www.w3.org/2000/svg">
<path d="M10.4164 18.8337H3.39978C2.43312 18.8337 1.64145 18.0587 1.64145 17.1087V4.74204C1.64145 2.55871 3.26645 1.56704 5.25812 2.54204L8.95812 4.35871C9.75812 4.75037 10.4164 5.79204 10.4164 6.67537V18.8337Z" stroke="white" stroke-linecap="round" stroke-linejoin="round"/>
<path d="M18.3081 13.0503V16.2003C18.3081 18.0003 17.4748 18.8336 15.6748 18.8336H10.4164V9.18359L10.8081 9.26693L14.5581 10.1086L16.2498 10.4836C17.3498 10.7253 18.2498 11.2919 18.2998 12.8919C18.3081 12.9419 18.3081 12.9919 18.3081 13.0503Z" stroke="white" stroke-linecap="round" stroke-linejoin="round"/>
<path opacity="0.4" d="M4.5831 8.00024H7.47477" stroke="white" stroke-linecap="round" stroke-linejoin="round"/>
<path opacity="0.4" d="M4.5831 11.3337H7.47477" stroke="white" stroke-linecap="round" stroke-linejoin="round"/>
<path d="M14.5581 10.1085V12.7918C14.5581 13.8252 13.7164 14.6668 12.6831 14.6668C11.6498 14.6668 10.8081 13.8252 10.8081 12.7918V9.26685L14.5581 10.1085Z" stroke="white" stroke-linecap="round" stroke-linejoin="round"/>
<path d="M18.2998 12.892C18.2498 13.8753 17.4331 14.667 16.4331 14.667C15.3998 14.667 14.5581 13.8253 14.5581 12.792V10.1086L16.2498 10.4836C17.3498 10.7253 18.2498 11.292 18.2998 12.892Z" stroke="white" stroke-linecap="round" stroke-linejoin="round"/>
</svg>
