<svg width="35" height="35" viewBox="0 0 35 35" fill="none" xmlns="http://www.w3.org/2000/svg">
<path d="M17.5001 33.1772C8.85216 33.1772 1.823 26.148 1.823 17.5001C1.823 8.85216 8.85216 1.823 17.5001 1.823C26.148 1.823 33.1772 8.85216 33.1772 17.5001C33.1772 26.148 26.148 33.1772 17.5001 33.1772ZM17.5001 4.0105C10.0626 4.0105 4.0105 10.0626 4.0105 17.5001C4.0105 24.9376 10.0626 30.9897 17.5001 30.9897C24.9376 30.9897 30.9897 24.9376 30.9897 17.5001C30.9897 10.0626 24.9376 4.0105 17.5001 4.0105Z" fill="white"/>
<path d="M13.3728 22.7207C13.0957 22.7207 12.8187 22.6187 12.5999 22.3999C12.177 21.977 12.177 21.277 12.5999 20.8541L20.8541 12.5999C21.277 12.177 21.977 12.177 22.3999 12.5999C22.8228 13.0228 22.8228 13.7228 22.3999 14.1457L14.1457 22.3999C13.9416 22.6187 13.6499 22.7207 13.3728 22.7207Z" fill="white"/>
<path d="M21.627 22.7207C21.3499 22.7207 21.0728 22.6187 20.8541 22.3999L12.5999 14.1457C12.177 13.7228 12.177 13.0228 12.5999 12.5999C13.0228 12.177 13.7228 12.177 14.1457 12.5999L22.3999 20.8541C22.8228 21.277 22.8228 21.977 22.3999 22.3999C22.1812 22.6187 21.9041 22.7207 21.627 22.7207Z" fill="white"/>
</svg>
