<svg width="35" height="35" viewBox="0 0 35 35" fill="none" xmlns="http://www.w3.org/2000/svg">
<path d="M10.8797 28.2042H8.07961C3.79211 27.8979 1.86719 24.6021 1.86719 21.6708C1.86719 18.7396 3.79213 15.4292 8.00671 15.1375C8.60463 15.0792 9.12961 15.5458 9.17336 16.1583C9.21711 16.7562 8.7651 17.2812 8.1526 17.325C5.32343 17.5292 4.05469 19.6583 4.05469 21.6854C4.05469 23.7125 5.32343 25.8417 8.1526 26.0458H10.8797C11.4776 26.0458 11.9734 26.5417 11.9734 27.1396C11.9734 27.7375 11.4776 28.2042 10.8797 28.2042Z" fill="white"/>
<path d="M24.3103 28.2041C24.2811 28.2041 24.2666 28.2041 24.2374 28.2041C23.6395 28.2041 23.0854 27.7083 23.0854 27.1104C23.0854 26.4833 23.552 26.0166 24.1645 26.0166C25.9583 26.0166 27.5624 25.3895 28.8166 24.2666C31.0916 22.2833 31.2374 19.425 30.6249 17.4125C30.0124 15.4145 28.3062 13.125 25.3312 12.7604C24.8499 12.702 24.4707 12.3375 24.3832 11.8562C23.7999 8.35622 21.9187 5.93538 19.0603 5.06038C16.1145 4.14163 12.6728 5.0458 10.529 7.29163C8.44362 9.46455 7.96238 12.5125 9.1728 15.8666C9.37697 16.4354 9.08537 17.0625 8.51662 17.2666C7.94787 17.4708 7.32076 17.1791 7.11659 16.6104C5.64367 12.4979 6.31452 8.56038 8.9541 5.78955C11.652 2.96038 15.9833 1.83745 19.702 2.97495C23.1145 4.02495 25.5207 6.83954 26.3957 10.7479C29.3707 11.4187 31.7624 13.6791 32.7103 16.8C33.7457 20.1979 32.8124 23.6979 30.2603 25.9146C28.6416 27.3729 26.527 28.2041 24.3103 28.2041Z" fill="white"/>
<path d="M17.4999 32.4918C14.5687 32.4918 11.827 30.9314 10.3249 28.4084C10.1645 28.1605 10.0041 27.8689 9.87286 27.548C9.37703 26.5126 9.1145 25.3314 9.1145 24.1064C9.1145 19.4834 12.877 15.7209 17.4999 15.7209C22.1228 15.7209 25.8853 19.4834 25.8853 24.1064C25.8853 25.3459 25.6229 26.5126 25.0979 27.5918C24.9812 27.8689 24.8208 28.1605 24.6458 28.4376C23.1729 30.9314 20.4312 32.4918 17.4999 32.4918ZM17.4999 17.9084C14.0874 17.9084 11.302 20.6939 11.302 24.1064C11.302 25.0105 11.4916 25.8564 11.8562 26.6293C11.9728 26.8772 12.0749 27.0814 12.1916 27.2709C13.2999 29.1522 15.327 30.3043 17.4853 30.3043C19.6437 30.3043 21.6707 29.1522 22.7645 27.3001C22.8957 27.0814 23.0125 26.8772 23.1 26.673C23.4937 25.8709 23.6832 25.0251 23.6832 24.1209C23.6978 20.6939 20.9124 17.9084 17.4999 17.9084Z" fill="white"/>
<path d="M16.6686 26.6438C16.3916 26.6438 16.1145 26.5417 15.8958 26.323L14.452 24.8792C14.029 24.4563 14.029 23.7563 14.452 23.3334C14.8749 22.9105 15.5749 22.9105 15.9978 23.3334L16.6978 24.0334L19.0311 21.8751C19.4832 21.4667 20.1686 21.4959 20.577 21.9334C20.9853 22.3709 20.9562 23.0709 20.5187 23.4792L17.4124 26.3521C17.1937 26.5417 16.9311 26.6438 16.6686 26.6438Z" fill="white"/>
</svg>
