<svg width="35" height="35" viewBox="0 0 35 35" fill="none" xmlns="http://www.w3.org/2000/svg">
<path d="M19.6876 24.4272H15.3126C11.3022 24.4272 8.3855 21.5105 8.3855 17.5001V10.0917C8.3855 7.948 10.1355 6.198 12.2793 6.198H22.7355C24.8792 6.198 26.6293 7.948 26.6293 10.0917V17.5001C26.6147 21.5105 23.698 24.4272 19.6876 24.4272ZM12.2793 8.3855C11.3459 8.3855 10.573 9.14383 10.573 10.0917V17.5001C10.573 19.8626 12.0313 22.2397 15.3126 22.2397H19.6876C22.9688 22.2397 24.4272 19.8626 24.4272 17.5001V10.0917C24.4272 9.15841 23.6688 8.3855 22.7209 8.3855H12.2793Z" fill="white"/>
<path d="M13.8542 8.3855C13.2563 8.3855 12.7605 7.88966 12.7605 7.29175V2.91675C12.7605 2.31883 13.2563 1.823 13.8542 1.823C14.4522 1.823 14.948 2.31883 14.948 2.91675V7.29175C14.948 7.88966 14.4522 8.3855 13.8542 8.3855Z" fill="white"/>
<path d="M21.1458 8.3855C20.5478 8.3855 20.052 7.88966 20.052 7.29175V2.91675C20.052 2.31883 20.5478 1.823 21.1458 1.823C21.7437 1.823 22.2395 2.31883 22.2395 2.91675V7.29175C22.2395 7.88966 21.7437 8.3855 21.1458 8.3855Z" fill="white"/>
<path d="M17.5 33.177C16.9021 33.177 16.4062 32.6812 16.4062 32.0833V23.3333C16.4062 22.7353 16.9021 22.2395 17.5 22.2395C18.0979 22.2395 18.5938 22.7353 18.5938 23.3333V32.0833C18.5938 32.6812 18.0979 33.177 17.5 33.177Z" fill="white"/>
</svg>
