<svg width="30" height="30" viewBox="0 0 30 30" fill="none" xmlns="http://www.w3.org/2000/svg">
<path d="M15 20.4124C12.0125 20.4124 9.58752 17.9874 9.58752 14.9999C9.58752 12.0124 12.0125 9.5874 15 9.5874C17.9875 9.5874 20.4125 12.0124 20.4125 14.9999C20.4125 17.9874 17.9875 20.4124 15 20.4124ZM15 11.4624C13.05 11.4624 11.4625 13.0499 11.4625 14.9999C11.4625 16.9499 13.05 18.5374 15 18.5374C16.95 18.5374 18.5375 16.9499 18.5375 14.9999C18.5375 13.0499 16.95 11.4624 15 11.4624Z" fill="#002E25"/>
<path d="M15 26.2751C10.3 26.2751 5.86248 23.5251 2.81248 18.7501C1.48748 16.6876 1.48748 13.3251 2.81248 11.2501C5.87498 6.4751 10.3125 3.7251 15 3.7251C19.6875 3.7251 24.125 6.4751 27.175 11.2501C28.5 13.3126 28.5 16.6751 27.175 18.7501C24.125 23.5251 19.6875 26.2751 15 26.2751ZM15 5.6001C10.9625 5.6001 7.09998 8.0251 4.39998 12.2626C3.46248 13.7251 3.46248 16.2751 4.39998 17.7376C7.09998 21.9751 10.9625 24.4001 15 24.4001C19.0375 24.4001 22.9 21.9751 25.6 17.7376C26.5375 16.2751 26.5375 13.7251 25.6 12.2626C22.9 8.0251 19.0375 5.6001 15 5.6001Z" fill="#002E25"/>
</svg>
