<svg width="34" height="34" viewBox="0 0 34 34" fill="none" xmlns="http://www.w3.org/2000/svg">
<path d="M33.0102 17.4636C33.0102 8.34808 25.6206 0.958496 16.5051 0.958496C7.38958 0.958496 0 8.34808 0 17.4636C0 26.5791 7.38958 33.9687 16.5051 33.9687C25.6206 33.9687 33.0102 26.5791 33.0102 17.4636Z" fill="white"/>
<path d="M20.8352 9.75811V12.2426H19.3585C19.163 12.2181 18.9645 12.2356 18.7763 12.294C18.5882 12.3525 18.4146 12.4504 18.2674 12.5814C18.0584 12.8772 17.9586 13.2365 17.9851 13.5977V15.3785H20.7406L20.3766 18.1583H17.9851V25.299H15.1062V18.1583H12.7069V15.3785H15.1062V13.3232C15.0758 12.8281 15.1468 12.332 15.315 11.8653C15.4832 11.3986 15.745 10.9712 16.0844 10.6094C16.4316 10.2816 16.8413 10.0273 17.2891 9.86162C17.7369 9.69593 18.2135 9.62232 18.6905 9.64519C19.4071 9.63335 20.1238 9.67108 20.8352 9.75811Z" fill="#002E25"/>
</svg>
