<svg width="30" height="30" viewBox="0 0 30 30" fill="none" xmlns="http://www.w3.org/2000/svg">
<path d="M8.0625 28.4375C7.55 28.4375 7.125 28.0125 7.125 27.5V2.5C7.125 1.9875 7.55 1.5625 8.0625 1.5625C8.575 1.5625 9 1.9875 9 2.5V27.5C9 28.0125 8.575 28.4375 8.0625 28.4375Z" fill="white"/>
<path d="M8.6875 22.1875C8.3375 22.1875 8.0125 22 7.85 21.6625C7.625 21.2 7.8125 20.6375 8.275 20.4125L18.65 15.2875C20.175 14.5 21.0375 13.55 21 12.6625C20.9625 11.8 20.0375 10.9125 18.45 10.2375L8.325 5.86246C7.8375 5.64996 7.625 5.09996 7.825 4.62496C8.025 4.14996 8.5875 3.92496 9.0625 4.13746L19.1875 8.51246C22.3125 9.83746 22.8375 11.6375 22.875 12.5875C22.9375 14.25 21.7375 15.8 19.5 16.95L9.1125 22.0875C8.975 22.1625 8.825 22.1875 8.6875 22.1875Z" fill="white"/>
</svg>
