<svg width="34" height="34" viewBox="0 0 34 34" fill="none" xmlns="http://www.w3.org/2000/svg">
<path d="M33.0504 17.4636C33.0504 8.34808 25.6608 0.958496 16.5453 0.958496C7.42974 0.958496 0.0401611 8.34808 0.0401611 17.4636C0.0401611 26.5791 7.42974 33.9687 16.5453 33.9687C25.6608 33.9687 33.0504 26.5791 33.0504 17.4636Z" fill="white"/>
<path d="M23.885 14.255C23.8765 13.5992 23.7539 12.9499 23.5228 12.3361C23.322 11.8185 23.0155 11.3483 22.6229 10.9557C22.2302 10.5631 21.7601 10.2566 21.2425 10.0558C20.6366 9.82826 19.9966 9.70519 19.3496 9.69182C18.5165 9.65447 18.2533 9.64404 16.1354 9.64404C14.0176 9.64404 13.75 9.64404 12.9213 9.69182C12.2749 9.70538 11.6354 9.82845 11.0301 10.0558C10.5131 10.2567 10.0436 10.5633 9.65171 10.956C9.25982 11.3486 8.95414 11.8187 8.75418 12.3361C8.52658 12.9412 8.40407 13.5808 8.39194 14.2272C8.35459 15.0603 8.34329 15.3253 8.34329 17.4414C8.34329 19.5575 8.34329 19.8259 8.39194 20.6555C8.40451 21.3025 8.52701 21.9426 8.75418 22.5484C8.95519 23.0658 9.26177 23.5355 9.65437 23.9279C10.047 24.3202 10.517 24.6264 11.0345 24.827C11.6381 25.0636 12.2777 25.1955 12.9256 25.217C13.7587 25.2544 14.0237 25.2657 16.1398 25.2657C18.2559 25.2657 18.5252 25.2657 19.3539 25.217C20.0009 25.2045 20.6409 25.082 21.2468 24.8548C21.7645 24.654 22.2346 24.3475 22.6272 23.9549C23.0198 23.5623 23.3263 23.0921 23.5271 22.5745C23.7547 21.9687 23.8772 21.3286 23.8894 20.6816C23.9267 19.8485 23.938 19.5853 23.938 17.4675C23.938 15.3496 23.938 15.0846 23.8876 14.2533L23.885 14.255ZM16.1337 21.4391C15.3422 21.4391 14.5684 21.2044 13.9103 20.7646C13.2521 20.3249 12.7392 19.6999 12.4363 18.9686C12.1334 18.2373 12.0541 17.4326 12.2085 16.6563C12.363 15.88 12.7441 15.1669 13.3038 14.6072C13.8635 14.0475 14.5766 13.6663 15.3529 13.5119C16.1293 13.3575 16.9339 13.4367 17.6652 13.7396C18.3965 14.0425 19.0215 14.5555 19.4613 15.2136C19.901 15.8718 20.1357 16.6455 20.1357 17.4371C20.1359 17.9627 20.0324 18.4832 19.8313 18.9689C19.6301 19.4546 19.3353 19.8958 18.9635 20.2675C18.5918 20.6392 18.1505 20.9339 17.6647 21.1349C17.179 21.336 16.6585 21.4393 16.1328 21.4391H16.1337ZM20.2956 14.2186C20.111 14.2187 19.9306 14.1642 19.777 14.0617C19.6235 13.9593 19.5038 13.8137 19.433 13.6432C19.3623 13.4728 19.3437 13.2851 19.3796 13.1041C19.4155 12.9231 19.5043 12.7568 19.6347 12.6262C19.7651 12.4956 19.9314 12.4067 20.1124 12.3706C20.2934 12.3345 20.481 12.353 20.6515 12.4236C20.8221 12.4941 20.9678 12.6137 21.0704 12.7672C21.1729 12.9206 21.2277 13.101 21.2277 13.2856C21.2278 13.4081 21.2038 13.5294 21.157 13.6426C21.1102 13.7557 21.0416 13.8586 20.955 13.9452C20.8684 14.0319 20.7656 14.1006 20.6525 14.1475C20.5393 14.1944 20.4181 14.2186 20.2956 14.2186Z" fill="#002E25"/>
<path d="M18.7334 17.4354C18.7334 17.9497 18.5809 18.4523 18.2952 18.8799C18.0095 19.3075 17.6035 19.6407 17.1284 19.8375C16.6533 20.0343 16.1305 20.0858 15.6262 19.9855C15.1218 19.8851 14.6586 19.6375 14.2949 19.2739C13.9313 18.9103 13.6837 18.447 13.5834 17.9427C13.4831 17.4383 13.5345 16.9155 13.7313 16.4405C13.9281 15.9654 14.2614 15.5593 14.6889 15.2736C15.1165 14.9879 15.6192 14.8354 16.1334 14.8354C16.823 14.8354 17.4843 15.1094 17.9719 15.597C18.4595 16.0846 18.7334 16.7459 18.7334 17.4354Z" fill="#002E25"/>
</svg>
