<svg width="32" height="35" viewBox="0 0 32 35" fill="none" xmlns="http://www.w3.org/2000/svg">
<path d="M32 17.4997C32 8.36426 24.8635 0.958496 16.0602 0.958496C7.25695 0.958496 0.120483 8.36426 0.120483 17.4997C0.120483 26.6352 7.25695 34.041 16.0602 34.041C24.8635 34.041 32 26.6352 32 17.4997Z" fill="white"/>
<g clip-path="url(#clip0_1_289)">
<path d="M24.179 24.417H20.971L20.9721 18.896C20.9336 17.6372 20.4984 16.5741 19.1134 16.7037C18.4084 16.7697 17.5757 17.5852 17.5757 18.3382V24.3751L17.5356 24.417H14.341V14.2717H17.5757V15.6691C18.1021 14.8373 18.8303 14.2526 19.7889 14.0841C22.386 13.6277 24.1132 15.5229 24.1801 18.1411L24.1787 24.417H24.179Z" fill="#002E25"/>
<path d="M12.5502 14.272H9.34225V24.4173H12.5502V14.272Z" fill="#002E25"/>
<path d="M10.7538 9.38901C12.0071 9.27302 13.0133 10.2185 12.7294 11.5662C12.3717 13.2644 9.71206 13.3505 9.22793 11.6942C8.88548 10.5237 9.61528 9.49438 10.7538 9.38901Z" fill="#002E25"/>
</g>
<defs>
<clipPath id="clip0_1_289">
<rect width="15.0375" height="15.0375" fill="white" transform="translate(9.14285 9.37939)"/>
</clipPath>
</defs>
</svg>
