<svg width="42" height="42" viewBox="0 0 42 42" fill="none" xmlns="http://www.w3.org/2000/svg">
<path d="M16.6597 24.0382C16.6597 25.7222 17.9618 27.0764 19.5591 27.0764H22.8229C24.2118 27.0764 25.3403 25.8958 25.3403 24.4201C25.3403 22.8403 24.6459 22.2674 23.6216 21.9028L18.3958 20.0799C17.3715 19.7153 16.6771 19.1597 16.6771 17.5625C16.6771 16.1042 17.8055 14.9062 19.1944 14.9062H22.4583C24.0556 14.9062 25.3577 16.2604 25.3577 17.9444" stroke="white" stroke-width="2" stroke-linecap="round" stroke-linejoin="round"/>
<path d="M21 13.1875V28.8125" stroke="white" stroke-width="2" stroke-linecap="round" stroke-linejoin="round"/>
<path d="M38.3611 20.9998C38.3611 30.5831 30.5834 38.3609 21 38.3609C11.4167 38.3609 3.63892 30.5831 3.63892 20.9998C3.63892 11.4165 11.4167 3.63867 21 3.63867" stroke="white" stroke-width="2" stroke-linecap="round" stroke-linejoin="round"/>
<path d="M29.6806 5.375V12.3194H36.625" stroke="#3BC04D" stroke-width="2" stroke-linecap="round" stroke-linejoin="round"/>
<path d="M38.3612 3.63867L29.6806 12.3192" stroke="#3BC04D" stroke-width="2" stroke-linecap="round" stroke-linejoin="round"/>
</svg>
