<svg width="31" height="31" viewBox="0 0 31 31" fill="none" xmlns="http://www.w3.org/2000/svg">
<path opacity="0.4" d="M15.7 14.0875C15.575 14.075 15.425 14.075 15.2875 14.0875C12.3125 13.9875 9.94995 11.55 9.94995 8.55C9.94995 5.4875 12.425 3 15.5 3C18.5625 3 21.05 5.4875 21.05 8.55C21.0375 11.55 18.675 13.9875 15.7 14.0875Z" stroke="black" stroke-width="2" stroke-linecap="round" stroke-linejoin="round"/>
<path d="M9.45002 18.7C6.42502 20.725 6.42502 24.025 9.45002 26.0375C12.8875 28.3375 18.525 28.3375 21.9625 26.0375C24.9875 24.0125 24.9875 20.7125 21.9625 18.7C18.5375 16.4125 12.9 16.4125 9.45002 18.7Z" stroke="black" stroke-width="2" stroke-linecap="round" stroke-linejoin="round"/>
</svg>
