<svg width="34" height="34" viewBox="0 0 34 34" fill="none" xmlns="http://www.w3.org/2000/svg">
<path d="M33.0905 17.4636C33.0905 8.34808 25.7009 0.958496 16.5854 0.958496C7.46992 0.958496 0.0803375 8.34808 0.0803375 17.4636C0.0803375 26.5791 7.46992 33.9687 16.5854 33.9687C25.7009 33.9687 33.0905 26.5791 33.0905 17.4636Z" fill="white"/>
<path d="M14.8182 19.4884L19.3692 17.1378L14.8182 14.7584V19.4884ZM16.5555 11.3818C17.609 11.3818 18.6262 11.3957 19.6072 11.4235C20.5883 11.4513 21.3076 11.4803 21.7651 11.5104L22.4513 11.5478L22.6112 11.5617C22.6837 11.5671 22.7559 11.5764 22.8275 11.5895C22.8709 11.5987 22.9445 11.6126 23.0481 11.6311C23.1401 11.6466 23.2301 11.6719 23.3165 11.7067C23.3918 11.738 23.4787 11.7788 23.5772 11.8292C23.6802 11.8806 23.778 11.942 23.869 12.0125C23.9665 12.0882 24.0577 12.1716 24.1418 12.2618C24.1941 12.3165 24.2429 12.3746 24.2877 12.4356C24.3961 12.6097 24.4874 12.7938 24.5605 12.9854C24.6871 13.2906 24.7704 13.6119 24.8081 13.9401C24.8585 14.3415 24.8976 14.7691 24.9254 15.2232C24.9532 15.6772 24.9702 16.0334 24.9766 16.2917V17.9465C24.9812 18.8584 24.9232 19.7695 24.8029 20.6733C24.7651 20.994 24.6863 21.3084 24.5683 21.6089C24.4952 21.8144 24.394 22.0088 24.2678 22.1866L24.1366 22.3464C24.0528 22.437 23.9615 22.5204 23.8638 22.5957C23.7732 22.6656 23.6753 22.7256 23.5719 22.7747C23.4718 22.8216 23.3849 22.8607 23.3113 22.892C23.2247 22.9264 23.1348 22.9517 23.0429 22.9675L22.8171 23.0092C22.7701 23.0185 22.698 23.0278 22.6007 23.037C22.5035 23.0463 22.4519 23.0509 22.4461 23.0509C20.8726 23.1702 18.9074 23.2299 16.5503 23.2299C15.2531 23.2171 14.1264 23.1966 13.1703 23.1682C12.2141 23.1398 11.5858 23.1164 11.2852 23.0978L10.8248 23.0605L10.486 23.0231C10.3135 23.002 10.1423 22.9707 9.97348 22.9293C9.8081 22.878 9.64763 22.812 9.49397 22.7321C9.29542 22.6359 9.11544 22.5053 8.96233 22.3464C8.91001 22.2917 8.86127 22.2337 8.81639 22.1727C8.70807 21.9986 8.61672 21.8144 8.54362 21.6228C8.4187 21.3203 8.33626 21.0019 8.29865 20.6768C8.24827 20.2714 8.20888 19.8423 8.18051 19.3894C8.15213 18.9365 8.13505 18.581 8.12925 18.3227V16.6669C8.12462 15.7551 8.18267 14.844 8.30299 13.9401C8.34075 13.6195 8.41958 13.3051 8.53754 13.0045C8.60939 12.7984 8.70937 12.6031 8.83463 12.4243L8.9658 12.2644C9.04973 12.1748 9.14097 12.0923 9.23857 12.0177C9.32961 11.9474 9.42704 11.8857 9.52958 11.8336C9.62919 11.7832 9.71606 11.7423 9.79019 11.7111C9.8777 11.6768 9.96853 11.6518 10.0612 11.6364L10.2827 11.5947C10.3273 11.5854 10.3994 11.5761 10.499 11.5669C10.5986 11.5576 10.6519 11.5538 10.6589 11.5556C12.2324 11.4397 14.1979 11.3818 16.5555 11.3818Z" fill="#002E25"/>
</svg>
