<svg width="35" height="35" viewBox="0 0 35 35" fill="none" xmlns="http://www.w3.org/2000/svg">
<path d="M13.8542 20.0517C13.8542 21.4663 14.948 22.6038 16.2897 22.6038H19.0313C20.198 22.6038 21.1459 21.6121 21.1459 20.3725C21.1459 19.0454 20.5626 18.5642 19.7022 18.2579L15.3126 16.7267C14.4522 16.4204 13.8688 15.9538 13.8688 14.6121C13.8688 13.3871 14.8167 12.3809 15.9834 12.3809H18.7251C20.0667 12.3809 21.1605 13.5184 21.1605 14.9329" stroke="white" stroke-width="2" stroke-linecap="round" stroke-linejoin="round"/>
<path d="M17.5 10.9375V24.0625" stroke="white" stroke-width="2" stroke-linecap="round" stroke-linejoin="round"/>
<path d="M32.0834 17.5003C32.0834 25.5503 25.5501 32.0837 17.5001 32.0837C9.45008 32.0837 2.91675 25.5503 2.91675 17.5003C2.91675 9.45033 9.45008 2.91699 17.5001 2.91699" stroke="white" stroke-width="2" stroke-linecap="round" stroke-linejoin="round"/>
<path d="M24.7917 4.375V10.2083H30.6251" stroke="#3BC04D" stroke-width="2" stroke-linecap="round" stroke-linejoin="round"/>
<path d="M32.0834 2.91699L24.7917 10.2087" stroke="#3BC04D" stroke-width="2" stroke-linecap="round" stroke-linejoin="round"/>
</svg>
